<svg id="satellite" xmlns="http://www.w3.org/2000/svg" viewBox="0 0 512 512"><path d="M312.844 56.15l-11.108 11.107L290.74 56.26l11.108-11.108zM334.833 78.135l-11.108 11.108-10.997-10.997 11.107-11.108zM356.85 100.16l-11.11 11.11-10.997-11 11.108-11.108zM378.824 122.123l-11.107 11.108-10.998-10.998 11.108-11.107zM400.842 144.148l-11.108 11.109-10.998-10.998 11.109-11.108zM422.82 166.118l-11.108 11.108-10.998-10.998 11.108-11.108zM444.816 188.112l-11.108 11.108-10.998-10.998 11.108-11.108zM466.833 210.15l-11.109 11.108-10.998-10.997 11.109-11.109z"/><path d="M483.175 193.498c18.638-21.273 28.822-48.249 28.822-76.795 0-31.179-12.142-60.49-34.188-82.538-43.644-43.645-113.533-45.428-159.33-5.364l-16.687-16.687-16.497 16.496-10.941-10.941-11.109 11.108 10.942 10.942-16.496 16.496 26.042 26.042c-11.027 35.71-4.435 74.369 18.053 104.364l12.57-9.424c-17.744-23.667-24.053-53.576-17.786-82.103l120.308 120.311c-28.527 6.265-58.438-.044-82.102-17.786l-9.424 12.57c20.465 15.342 44.966 23.293 69.812 23.293 11.57 0 23.214-1.726 34.561-5.23l26.032 26.032 16.496-16.496 10.941 10.943 11.109-11.108-10.942-10.942 16.496-16.496-16.682-16.687zM460.909 39.955l-10.706 10.706 11.109 11.108 10.728-10.728c15.688 18.284 24.246 41.314 24.246 65.66 0 .636-.011 1.268-.023 1.902L393.435 15.776c24.02-.432 48.148 7.629 67.474 24.179zm-87.361-21.848l120.39 120.39c-3.533 16.148-10.991 31.154-21.898 43.865L329.633 39.955a100.322 100.322 0 0143.915-21.848zm82.21 213.959L279.908 56.215l21.885-21.885 175.85 175.851-21.885 21.885z"/><path d="M4.778 496.085l340.938-340.938 11.108 11.109L15.887 507.193zM258.435 66.535l9.718 12.344L9.72 282.349.001 270.007zM241.976 511.964l-12.343-9.718 203.471-258.434 12.343 9.718z"/></svg>