<?xml version="1.0" standalone="no"?>
<!DOCTYPE svg PUBLIC "-//W3C//DTD SVG 20010904//EN"
 "http://www.w3.org/TR/2001/REC-SVG-20010904/DTD/svg10.dtd">
<svg version="1.0" xmlns="http://www.w3.org/2000/svg"
 width="700.000000pt" height="700.000000pt" viewBox="0 0 700.000000 700.000000"
 preserveAspectRatio="xMidYMid meet">
<metadata>
Created by potrace 1.11, written by Peter Selinger 2001-2013
</metadata>
<g transform="translate(0.000000,700.000000) scale(0.100000,-0.100000)"
fill="#000000" stroke="none">
<path d="M5160 6980 c-185 -31 -313 -71 -464 -147 -101 -51 -231 -133 -294
-186 -24 -21 -46 -37 -48 -37 -2 0 -53 50 -114 110 -60 61 -111 110 -113 110
-2 0 -54 -50 -116 -111 l-112 -110 -73 74 -74 75 -77 -76 -76 -76 75 -75 75
-75 -110 -108 c-60 -59 -109 -111 -109 -115 0 -4 79 -87 174 -183 l175 -175
-19 -70 c-78 -282 -61 -668 41 -935 11 -30 25 -68 31 -85 36 -99 183 -339 202
-328 47 28 166 127 159 132 -11 7 -67 94 -108 166 -68 123 -136 337 -152 481
-16 144 1 454 25 454 9 0 1632 -1623 1632 -1631 0 -23 -326 -44 -430 -28 -25
4 -65 10 -90 13 -156 21 -368 105 -523 207 -32 22 -62 39 -67 39 -8 0 -130
-153 -130 -163 0 -3 35 -27 78 -55 208 -135 396 -207 642 -246 98 -16 362 -19
433 -6 26 5 68 12 93 16 25 3 76 14 112 25 l67 19 177 -177 c98 -97 179 -175
182 -173 3 3 54 53 113 112 l109 108 74 -75 75 -75 76 76 76 75 -75 76 -75 76
74 72 c41 40 91 90 113 112 l38 41 -111 111 c-61 62 -111 114 -111 117 0 2 21
30 47 62 168 205 297 510 330 777 15 116 7 428 -12 495 -2 8 -6 26 -9 40 -29
168 -127 400 -239 566 -149 223 -369 415 -614 538 -131 66 -349 134 -483 151
-117 16 -362 13 -470 -5z m388 -204 c238 -21 484 -119 700 -278 l54 -40 -72
-73 c-83 -84 -84 -75 17 -169 l62 -59 73 72 73 72 23 -28 c45 -55 130 -189
167 -262 42 -85 99 -252 111 -326 4 -28 9 -52 9 -55 13 -51 26 -240 17 -240
-4 0 -321 314 -705 698 l-699 699 49 -3 c26 -1 81 -5 121 -8z m382 -846 c451
-451 820 -827 820 -835 0 -29 -54 -183 -95 -271 -39 -84 -110 -203 -148 -250
-9 -10 -24 -30 -34 -42 l-19 -24 -972 972 c-765 765 -970 975 -962 985 19 23
182 131 245 163 81 40 182 83 225 94 19 5 49 13 65 18 17 4 36 8 42 9 7 1 382
-368 833 -819z m451 -1954 l-150 -150 -1202 1203 -1202 1203 149 149 149 149
1202 -1202 1203 -1203 -149 -149z"/>
<path d="M4050 6305 l-74 -75 74 -75 75 -75 72 72 c40 40 73 76 73 80 0 7
-136 148 -143 148 -1 0 -36 -34 -77 -75z"/>
<path d="M4350 6005 l-74 -75 74 -75 75 -75 72 72 c40 40 73 76 73 81 0 7
-136 147 -143 147 -1 0 -36 -34 -77 -75z"/>
<path d="M4650 5705 l-75 -75 76 -76 76 -75 75 76 76 77 -74 74 c-41 41 -76
74 -77 74 -1 0 -36 -34 -77 -75z"/>
<path d="M4953 5406 l-77 -77 75 -75 75 -74 77 75 77 75 -75 76 -75 76 -77
-76z"/>
<path d="M5251 5103 l-75 -74 76 -76 77 -76 75 75 75 76 -52 53 c-29 30 -64
64 -77 76 l-25 21 -74 -75z"/>
<path d="M5552 4802 l-74 -75 76 -75 75 -76 76 78 77 77 -77 75 c-42 40 -77
73 -78 73 -1 -1 -35 -35 -75 -77z"/>
<path d="M5855 4503 l-76 -77 75 -75 76 -76 76 77 76 76 -75 76 -75 75 -77
-76z"/>
<path d="M6152 4197 l-72 -72 75 -75 75 -75 76 76 76 76 -71 72 c-40 39 -75
71 -79 71 -4 0 -40 -33 -80 -73z"/>
<path d="M3224 5848 c-170 -134 -367 -289 -439 -346 -71 -56 -141 -111 -155
-122 -14 -11 -84 -66 -155 -122 -136 -107 -406 -320 -630 -495 -71 -57 -143
-114 -160 -127 -23 -18 -624 -492 -940 -740 -417 -328 -583 -459 -595 -469 -8
-6 -46 -36 -83 -66 l-68 -53 34 -42 c18 -22 48 -60 66 -83 37 -47 32 -47 107
14 35 29 118 95 555 437 63 49 166 130 229 180 63 50 122 96 130 103 8 6 34
27 56 45 23 18 65 51 94 73 29 22 57 45 64 50 6 6 83 67 171 135 88 69 162
127 165 130 3 3 66 53 140 111 129 101 308 241 945 744 160 126 319 251 355
279 36 28 70 55 76 61 7 5 116 91 243 190 126 99 230 184 231 189 0 7 -43 64
-120 159 -4 4 -146 -102 -316 -235z"/>
<path d="M2396 2551 l-2330 -2330 40 -43 c21 -24 56 -58 76 -77 l38 -33 2329
2329 2330 2330 -77 76 -77 77 -2329 -2329z"/>
<path d="M5874 3607 c-22 -29 -92 -117 -155 -197 -63 -80 -148 -188 -189 -240
-40 -52 -76 -97 -79 -100 -4 -3 -19 -23 -36 -45 -16 -22 -31 -42 -35 -45 -3
-3 -18 -23 -35 -45 -16 -22 -32 -42 -35 -45 -3 -3 -73 -90 -155 -195 -223
-285 -438 -558 -452 -575 -7 -8 -83 -105 -169 -215 -87 -110 -225 -285 -308
-390 -82 -104 -169 -215 -192 -245 -24 -30 -84 -107 -134 -170 -50 -63 -142
-180 -205 -260 -174 -222 -364 -463 -378 -480 -16 -20 -158 -202 -169 -216 -5
-7 15 -29 54 -60 35 -27 72 -57 83 -66 15 -15 21 -16 31 -6 9 10 472 597 610
773 77 99 538 683 552 700 9 11 37 47 62 80 25 33 47 62 50 65 3 3 215 271
470 595 254 325 488 622 519 660 32 39 66 82 76 97 29 38 308 392 315 398 21
18 110 147 108 155 -4 13 -143 125 -154 125 -5 -1 -27 -24 -50 -53z"/>
</g>
</svg>
